<?xml version="1.0" encoding="utf-8"?>
<!-- Generator: Adobe Illustrator 22.1.0, SVG Export Plug-In . SVG Version: 6.00 Build 0)  -->
<svg version="1.1" id="Layer_1" xmlns="http://www.w3.org/2000/svg" xmlns:xlink="http://www.w3.org/1999/xlink" x="0px" y="0px"
	 viewBox="0 0 214 238.8" style="enable-background:new 0 0 214 238.8;" xml:space="preserve">
<style type="text/css">
	.st0{fill:#FFFFFF;}
	.st1{fill:#00488E;}
	.st2{fill:#00488E;stroke:#003976;stroke-width:0.2;stroke-miterlimit:10;}
</style>
<title>Toronto Maple Leafs dark logo</title>
<g>
	<g>
		<path class="st0" d="M106.2,128.7c0.8,0,1.6,0,2.4,0c0.9,0,1.6-0.7,1.6-1.6v-11c0-0.9-0.7-1.6-1.6-1.6c-0.8,0-1.6,0-2.4,0
			c-0.9,0-1.6,0.7-1.6,1.6v11C104.6,128,105.3,128.7,106.2,128.7z"/>
	</g>
	<g>
		<path class="st0" d="M111.6,147h-3.3v6.2h3.3c0.6,0,1.1-0.5,1.1-1.1v-3.9C112.7,147.5,112.2,147,111.6,147z"/>
	</g>
	<g>
		<polygon class="st0" points="91.1,155.1 94.6,155.1 92.8,147.3 		"/>
	</g>
	<g>
		<path class="st0" d="M87.2,124.1c1.1-0.2,2.2-0.4,3.4-0.6c0.4-0.1,0.8-0.3,1.1-0.6c0.3-0.3,0.4-0.8,0.3-1.2l-0.7-4.6
			c-0.1-0.9-1-1.5-1.9-1.3c-1.1,0.2-2.2,0.4-3.4,0.6l-0.3,0l1.3,7.7L87.2,124.1z"/>
	</g>
	<g>
		<polygon class="st0" points="106.6,171.7 104.6,179.5 108.5,179.5 		"/>
	</g>
	<g>
		<path class="st0" d="M163.6,128.4c-0.7-0.4-1.4-0.7-2.2-1.1c-0.2-0.1-0.5-0.2-0.7-0.2c-0.6,0-1.2,0.3-1.4,0.9l-5.1,9.8
			c-0.2,0.4-0.2,0.8-0.1,1.2c0.1,0.4,0.4,0.7,0.8,0.9c0.7,0.4,1.4,0.7,2.1,1.1c0.2,0.1,0.5,0.2,0.7,0.2c0.6,0,1.1-0.3,1.4-0.9
			l5.1-9.8C164.7,129.8,164.4,128.8,163.6,128.4z"/>
	</g>
	<g>
		<path class="st0" d="M110.3,234.8c-0.7,0-1.4-0.3-1.8-0.8c-5.6-6-8.6-12.6-9.6-20.6c-10.3,4.7-22,8.3-34.8,10.8l-0.2,0l-0.3,0
			c-0.7,0-1.5-0.4-1.9-1c-0.4-0.6-0.6-1.4-0.4-2.1c1.1-3.4,2.2-6.2,3.6-8.9c-4.4,0.8-9.8,1.6-16.6,2.3l-0.1,0l-0.1,0
			c-0.8,0-1.5-0.4-1.9-1c-0.4-0.6-0.5-1.4-0.3-2.2c0.8-2.2,1.6-4.2,2.5-6.2c-5.5,1.3-11.9,2.4-19.9,3.4l-0.1,0l-0.2,0
			c-0.9,0-1.7-0.5-2.1-1.3c-0.4-0.8-0.3-1.7,0.2-2.4c6-8.5,12.3-15.6,19.3-21.6c-4.6-2-9.1-4.8-14.3-8.7c-0.6-0.5-1-1.2-0.9-2.1
			c0.1-0.8,0.5-1.5,1.2-1.9c5.4-3,10.9-5.5,16.6-7.6c-4.5-1.1-8.3-2.5-11.5-4.2c-0.6-0.3-1.1-0.9-1.2-1.6c-0.1-0.7,0-1.4,0.5-2
			c1.5-1.8,2.9-3.3,4.5-4.7c-6-2.7-11.3-6.1-16.1-10.4c-1-0.9-1.1-2.3-0.2-3.3c1.5-1.8,3.4-3.6,5.5-5.4c-6.5-4.4-12.6-9.4-18.2-14.9
			c-0.4-0.4-0.7-1.1-0.7-1.7c0-0.6,0.3-1.2,0.7-1.7c1.2-1.1,2.4-2.2,3.8-3.1c-4.2-3.8-8-8.7-11.3-14.3c-0.3-0.6-0.4-1.3-0.2-2
			c0.2-0.7,0.7-1.2,1.4-1.4c2.5-0.9,4.8-1.6,7.1-2.1c-1.8-4.1-3.2-8.8-4.3-14.8c-0.1-0.7,0-1.4,0.5-2c0.4-0.5,1.1-0.9,1.8-0.9h0.3
			l0.3,0.1c5.5,1.4,11.3,3.9,15.1,5.6c0.8-3.1,1.7-6.1,3.2-8.8c0.4-0.7,1.2-1.2,2.1-1.2c0.5,0,1,0.2,1.4,0.4
			c5,3.6,9.5,7.5,13.4,11.7c1.1-1.4,2.3-2.5,3.7-3.5c0.4-0.3,0.9-0.4,1.4-0.4c0.7,0,1.4,0.3,1.8,0.9c5.4,6.7,13.4,15.7,22.3,22.8
			c-2.4-6.4-5.4-12.5-8.3-18.3c-0.3-0.7-0.3-1.4,0-2.1c0.3-0.7,0.9-1.1,1.6-1.3c0.9-0.2,2-0.4,3.2-0.5c-3.8-6.2-7.1-13.7-9.4-21.5
			c-0.2-0.7-0.1-1.5,0.4-2.1c0.4-0.6,1.1-0.9,1.9-0.9l0.1,0c3.4,0.2,7.3,0.8,10.8,1.8c-0.6-5.6-0.3-12,1-19.1
			c0.2-1.1,1.2-1.9,2.3-1.9c0.3,0,0.6,0.1,0.8,0.1c2.1,0.8,4.3,1.8,6.6,3.1c-0.1-5.4,0.5-11.2,1.8-16.3c0.3-1.1,1.2-1.8,2.3-1.8
			c0.3,0,0.5,0,0.8,0.1c1.5,0.5,3.3,1.4,5.4,2.5c2.3-6,5.6-11.7,8.9-17.1c0.4-0.7,1.2-1.1,2-1.1c0.8,0,1.6,0.4,2,1.1
			c3.3,5.3,6.6,11.1,8.9,17.1c2-1.1,3.8-2,5.4-2.5c0.2-0.1,0.5-0.1,0.8-0.1c1.1,0,2,0.7,2.3,1.8c1.2,5.2,1.9,11,1.8,16.3
			c2.3-1.3,4.6-2.3,6.6-3.1c0.3-0.1,0.5-0.2,0.8-0.2c1.1,0,2.1,0.8,2.3,1.9c1.3,7.1,1.6,13.5,1,19.1c3.5-1,7.4-1.6,10.8-1.8l0.1,0
			c0.7,0,1.4,0.4,1.9,0.9c0.4,0.6,0.6,1.4,0.4,2.1c-2.3,7.8-5.7,15.4-9.4,21.5c1.3,0.1,2.3,0.3,3.2,0.5c0.7,0.2,1.3,0.6,1.6,1.3
			c0.3,0.7,0.3,1.4,0,2.1c-2.9,5.7-5.9,11.9-8.3,18.2c9.5-7.6,16.8-16,22.2-22.8c0.4-0.6,1.1-0.9,1.8-0.9c0.5,0,1,0.2,1.4,0.4
			c1.4,1,2.6,2.2,3.7,3.5c3.9-4.2,8.4-8.1,13.4-11.7c0.4-0.3,0.9-0.4,1.4-0.4c0.8,0,1.6,0.5,2.1,1.2c1.6,2.8,2.5,5.7,3.2,8.8
			c3.8-1.8,9.6-4.2,15.1-5.6l0.2-0.1l0.3,0c0.7,0,1.4,0.3,1.8,0.9c0.5,0.5,0.6,1.3,0.5,2c-1.1,5.9-2.5,10.7-4.3,14.8
			c2.3,0.5,4.6,1.1,7.1,2.1c0.7,0.2,1.2,0.8,1.4,1.4c0.2,0.7,0.2,1.4-0.2,2c-3.3,5.7-7.1,10.5-11.3,14.3c1.3,0.9,2.6,2,3.8,3.1
			c0.4,0.4,0.7,1,0.7,1.7c0,0.6-0.3,1.2-0.7,1.7c-5.6,5.5-11.7,10.5-18.2,14.9c2.1,1.8,4,3.6,5.5,5.4c0.8,1,0.7,2.4-0.2,3.3
			c-4.8,4.3-10.1,7.7-16.1,10.4c1.5,1.3,3,2.9,4.5,4.7c0.5,0.6,0.6,1.3,0.5,2s-0.6,1.3-1.2,1.6c-3.2,1.7-7,3-11.5,4.2
			c5.7,2.1,11.1,4.6,16.6,7.6c0.7,0.4,1.2,1.1,1.2,1.9c0.1,0.8-0.3,1.6-0.9,2.1c-5.2,3.9-9.7,6.6-14.3,8.7c7,6,13.3,13.1,19.3,21.6
			c0.5,0.7,0.6,1.7,0.2,2.4c-0.4,0.8-1.2,1.3-2.1,1.3h-0.1l-0.2,0c-8-1-14.4-2.1-19.9-3.4c0.9,1.9,1.7,4,2.5,6.2
			c0.3,0.7,0.2,1.5-0.3,2.2c-0.4,0.6-1.2,1-1.9,1h-0.1l-0.1,0c-6.8-0.7-12.2-1.5-16.6-2.3c1.4,2.6,2.6,5.5,3.6,8.9
			c0.2,0.7,0.1,1.5-0.3,2.1c-0.4,0.6-1.1,1-1.9,1h-0.2l-0.3,0c-12.3-2.4-28.3-7.6-37-11.3c0.1,1.9,1.2,5.6,6.2,11.3
			c0.9,1.1,0.9,2.6-0.2,3.6l-7,6.4C111.5,234.6,110.9,234.8,110.3,234.8z"/>
		<path class="st1" d="M107,5.9c0.1,0,0.2,0.1,0.3,0.2c3.7,6.1,7.2,12.3,9.4,18.6c0.1,0.1,0.2,0.2,0.3,0.2c0.1,0,0.1,0,0.2,0
			c2.3-1.4,4.7-2.6,6.7-3.3c0,0,0.1,0,0.1,0c0.1,0,0.3,0.1,0.3,0.3c1.3,5.6,2,12.5,1.6,18.8c0,0.2,0.2,0.4,0.3,0.4
			c0.1,0,0.1,0,0.2-0.1c2.9-1.8,6.1-3.4,9-4.4c0,0,0.1,0,0.1,0c0.2,0,0.3,0.1,0.3,0.3c1.3,6.9,1.8,14.4,0.6,21.1
			c0,0.2,0.1,0.4,0.3,0.4c0,0,0.1,0,0.1,0c4-1.4,8.8-2.3,12.8-2.5c0,0,0,0,0,0c0.2,0,0.4,0.2,0.3,0.4c-2.3,7.7-5.9,16.3-10.7,23.4
			c-0.1,0.2,0,0.5,0.3,0.5c2,0.1,4.1,0.3,5.7,0.7c0.2,0,0.3,0.3,0.2,0.5c-3.8,7.3-7.6,15.3-10.2,23.7c-0.1,0.2,0.1,0.4,0.3,0.4
			c0.1,0,0.1,0,0.2-0.1c11.3-8.1,20-17.9,27-26.5c0.1-0.1,0.2-0.1,0.3-0.1c0.1,0,0.1,0,0.2,0.1c1.9,1.3,3.3,2.9,4.4,4.7
			c0.1,0.1,0.2,0.2,0.3,0.2c0.1,0,0.2,0,0.3-0.1c4.2-4.7,9.1-9,14.5-13c0.1,0,0.1-0.1,0.2-0.1c0.1,0,0.2,0.1,0.3,0.2
			c1.8,3.2,2.7,7,3.5,10.3c0,0.2,0.2,0.3,0.3,0.3c0,0,0.1,0,0.1,0c5.1-2.4,11.3-5,16.6-6.4c0,0,0.1,0,0.1,0c0.2,0,0.4,0.2,0.3,0.4
			c-1.2,6-2.7,11.5-5.1,16.3c-0.1,0.2,0,0.5,0.3,0.5c2.9,0.4,5.8,1.2,8.9,2.4c0.2,0.1,0.3,0.3,0.2,0.5c-3.6,6.2-7.7,11.3-12.5,15.3
			c-0.2,0.2-0.2,0.4,0,0.6c2,1.2,3.7,2.5,5.3,4.1c0.1,0.1,0.1,0.4,0,0.5c-6.1,5.9-12.6,11.3-19.8,15.9c-0.2,0.1-0.2,0.4,0,0.6
			c2.6,2,5,4.2,7,6.5c0.1,0.1,0.1,0.4,0,0.5c-5.2,4.6-11.1,8.3-18,11.1c-0.3,0.1-0.3,0.4-0.1,0.6c2.5,1.8,4.4,3.9,6.3,6.1
			c0.1,0.2,0.1,0.4-0.1,0.5c-4.9,2.5-10.9,4.2-17.1,5.3c-0.3,0.1-0.3,0.4,0,0.5c7.9,2.5,15.2,5.6,22.2,9.5c0.2,0.1,0.2,0.4,0,0.6
			c-5.1,3.8-10.3,7.1-16.4,9.5c-0.3,0.1-0.3,0.4-0.1,0.6c8.3,6.8,15.1,14.5,21,23c0.2,0.2,0,0.6-0.3,0.6c0,0,0,0,0,0
			c-8.4-1.1-16.3-2.4-23.1-4.2c0,0-0.1,0-0.1,0c-0.2,0-0.4,0.3-0.3,0.5c1.5,2.9,2.8,6,4,9.2c0.1,0.2-0.1,0.5-0.3,0.5c0,0,0,0,0,0
			c-7.6-0.8-14.5-1.8-20.1-3c0,0-0.1,0-0.1,0c-0.3,0-0.4,0.3-0.3,0.5c2.3,3.6,4,7.4,5.3,11.7c0.1,0.2-0.1,0.5-0.3,0.5c0,0,0,0-0.1,0
			c-13.1-2.5-29.7-8.1-37.8-11.7c-0.1-0.1-0.3-0.1-0.4-0.1c-0.5,0-0.9,0.3-1,0.8c-1.1,5.5,5.2,12.7,6.6,14.3c0.2,0.2,0.2,0.5,0,0.7
			l-7,6.4c-0.1,0.1-0.2,0.1-0.3,0.1c-0.1,0-0.3-0.1-0.4-0.2c-5-5.3-8.6-12-9.2-21.6c0-0.3-0.2-0.4-0.5-0.4c-0.1,0-0.1,0-0.2,0
			c-10.8,5.2-22.9,9-36.3,11.5c0,0,0,0-0.1,0c-0.2,0-0.4-0.2-0.3-0.5c1.3-4.2,3-8.1,5.3-11.6c0.2-0.2,0-0.5-0.3-0.5c0,0-0.1,0-0.1,0
			c-5.5,1.3-12.4,2.2-20.1,3c0,0,0,0,0,0c-0.2,0-0.4-0.2-0.3-0.5c1.2-3.2,2.5-6.3,4-9.2c0.1-0.2-0.1-0.5-0.3-0.5c0,0-0.1,0-0.1,0
			c-6.8,1.9-14.6,3.2-23.1,4.2c0,0,0,0,0,0c-0.3,0-0.5-0.3-0.3-0.6c5.9-8.5,12.7-16.2,21-23c0.2-0.2,0.2-0.5-0.1-0.6
			c-6.1-2.4-11.3-5.7-16.4-9.5c-0.2-0.2-0.2-0.5,0-0.6c7-3.9,14.3-7.1,22.2-9.5c0.3-0.1,0.3-0.5,0-0.5c-6.2-1.1-12.2-2.8-17.1-5.3
			c-0.2-0.1-0.3-0.4-0.1-0.5c1.8-2.2,3.8-4.2,6.3-6.1c0.2-0.2,0.2-0.5-0.1-0.6c-6.9-2.8-12.8-6.5-18-11.1c-0.1-0.1-0.2-0.4,0-0.5
			c2-2.4,4.3-4.5,7-6.5c0.2-0.2,0.2-0.4,0-0.6c-7.2-4.7-13.8-10-19.8-15.9c-0.1-0.1-0.1-0.4,0-0.5c1.6-1.5,3.3-2.9,5.3-4.1
			c0.2-0.1,0.2-0.4,0-0.6c-4.8-4-8.9-9.1-12.5-15.3c-0.1-0.2,0-0.4,0.2-0.5c3.1-1.1,5.9-1.9,8.9-2.4c0.2,0,0.4-0.3,0.3-0.5
			c-2.4-4.8-3.9-10.3-5.1-16.3c0-0.2,0.1-0.4,0.3-0.4c0,0,0.1,0,0.1,0c5.4,1.4,11.5,3.9,16.6,6.4c0,0,0.1,0,0.1,0
			c0.2,0,0.3-0.1,0.3-0.3c0.8-3.3,1.6-7.1,3.5-10.3c0.1-0.1,0.2-0.2,0.3-0.2c0.1,0,0.1,0,0.2,0.1c5.4,3.9,10.3,8.2,14.5,13
			c0.1,0.1,0.2,0.1,0.3,0.1c0.1,0,0.2-0.1,0.3-0.2c1.1-1.8,2.5-3.4,4.4-4.7c0.1,0,0.1-0.1,0.2-0.1c0.1,0,0.2,0,0.3,0.1
			c7.4,9.2,17,19.5,27,26.5c0.1,0,0.1,0.1,0.2,0.1c0.2,0,0.3-0.2,0.3-0.4c-2.6-8.4-6.4-16.4-10.2-23.8c-0.1-0.2,0-0.4,0.2-0.5
			c1.6-0.4,3.7-0.6,5.7-0.7c0.3,0,0.4-0.3,0.3-0.5c-4.8-7.1-8.4-15.6-10.7-23.4c-0.1-0.2,0.1-0.4,0.3-0.4c0,0,0,0,0,0
			c4,0.2,8.8,1.1,12.8,2.5c0,0,0.1,0,0.1,0c0.2,0,0.4-0.2,0.3-0.4c-1.2-6.7-0.6-14.2,0.6-21.1c0-0.2,0.2-0.3,0.3-0.3
			c0,0,0.1,0,0.1,0c2.8,1.1,6,2.7,9,4.4c0.1,0,0.1,0.1,0.2,0.1c0.2,0,0.4-0.2,0.3-0.4c-0.4-6.3,0.3-13.2,1.6-18.8
			c0-0.2,0.2-0.3,0.3-0.3c0,0,0.1,0,0.1,0c2,0.7,4.4,2,6.7,3.3c0.1,0,0.1,0,0.2,0c0.1,0,0.3-0.1,0.3-0.2c2.2-6.3,5.6-12.5,9.4-18.6
			C106.8,6,106.9,5.9,107,5.9 M107,1.9c-1.5,0-2.9,0.8-3.7,2.1c-2.9,4.8-5.9,9.9-8.2,15.3c-1.3-0.7-2.6-1.2-3.7-1.6
			c-0.5-0.2-0.9-0.2-1.4-0.2c-2,0-3.7,1.4-4.2,3.3c-1,4.3-1.6,9-1.8,13.6c-1.4-0.7-2.7-1.2-4-1.7c-0.5-0.2-1-0.3-1.5-0.3
			c-2.1,0-3.9,1.5-4.3,3.6c-1.1,6.1-1.6,11.8-1.3,16.9c-2.8-0.6-5.8-1-8.5-1.2l-0.1,0l-0.1,0c-1.4,0-2.7,0.7-3.5,1.7
			c-0.8,1.1-1.1,2.5-0.7,3.8c2.1,6.9,4.9,13.6,8.1,19.4c-0.2,0-0.3,0.1-0.4,0.1c-1.3,0.3-2.4,1.2-3,2.4c-0.6,1.2-0.5,2.6,0.1,3.8
			c1.7,3.3,3.4,6.8,5,10.3c-6.2-5.8-11.6-12-15.6-17c-0.8-1-2.1-1.6-3.4-1.6c-0.9,0-1.8,0.3-2.5,0.8c-0.9,0.7-1.8,1.4-2.6,2.2
			c-3.6-3.7-7.7-7.2-12.1-10.4c-0.7-0.5-1.6-0.8-2.6-0.8c-1.6,0-3,0.8-3.8,2.2c-1.3,2.3-2.1,4.6-2.8,7c-3.8-1.6-8.6-3.6-13.3-4.8
			c-0.4-0.1-0.7-0.1-1.1-0.1c-1.3,0-2.5,0.6-3.4,1.6c-0.8,1-1.2,2.3-0.9,3.6c1,5.1,2.1,9.3,3.6,13c-1.6,0.4-3.3,1-5.1,1.6
			c-1.2,0.5-2.1,1.4-2.6,2.6c-0.4,1.2-0.3,2.5,0.3,3.7C5,102,8.3,106.4,12,110c-0.7,0.6-1.4,1.2-2.1,1.9c-0.8,0.8-1.3,1.9-1.3,3.1
			c0,1.2,0.5,2.3,1.3,3.1c5.1,5,10.6,9.6,16.4,13.7c-1.4,1.3-2.7,2.6-3.8,4c-1.5,1.8-1.3,4.5,0.5,6.1c4.3,3.8,8.8,6.9,13.9,9.5
			c-0.8,0.9-1.7,1.8-2.5,2.8c-0.8,1-1.2,2.4-0.9,3.7c0.3,1.3,1.1,2.4,2.3,3c1.9,1,4,1.9,6.3,2.7c-3.9,1.7-7.7,3.5-11.4,5.6
			c-1.3,0.7-2.1,2-2.2,3.5c-0.1,1.5,0.6,2.9,1.7,3.8c4.3,3.2,8.1,5.6,11.9,7.6c-6.2,5.7-11.9,12.3-17.3,20c-0.9,1.3-1,3.1-0.3,4.5
			c0.8,1.4,2.2,2.3,3.9,2.3h0.3l0.3,0c6.3-0.8,11.6-1.7,16.3-2.6c-0.4,0.9-0.7,1.8-1,2.7c-0.5,1.3-0.3,2.8,0.5,4
			c0.8,1.2,2.2,1.9,3.6,1.9h0.2l0.3,0c5-0.5,9.2-1.1,12.9-1.7c-0.7,1.7-1.4,3.6-2.1,5.6c-0.4,1.3-0.2,2.8,0.6,3.9
			c0.8,1.1,2.1,1.8,3.5,1.8c0.3,0,0.5,0,0.8-0.1c12-2.3,23-5.6,32.8-9.8c1.3,7.2,4.5,13.5,9.7,19c0.8,0.9,2,1.4,3.3,1.4
			c1.1,0,2.2-0.4,3-1.2l7-6.4c1.8-1.7,2-4.5,0.3-6.3l0,0c-2.4-2.7-3.8-4.9-4.6-6.5c9.2,3.6,22.5,7.7,33.5,9.8
			c0.3,0.1,0.5,0.1,0.8,0.1c1.4,0,2.7-0.7,3.5-1.8c0.8-1.1,1.1-2.6,0.6-3.9c-0.6-2-1.3-3.9-2.1-5.6c3.7,0.6,7.9,1.1,12.9,1.7l0.2,0
			l0.3,0c1.4,0,2.8-0.7,3.6-1.9c0.8-1.2,1-2.7,0.5-4c-0.3-0.9-0.7-1.8-1-2.7c4.7,1,10,1.8,16.3,2.6l0.3,0l0.3,0
			c1.6,0,3.1-0.9,3.9-2.3c0.8-1.4,0.6-3.2-0.3-4.5c-5.4-7.7-11.1-14.3-17.3-20c3.8-1.9,7.6-4.4,11.9-7.6c1.2-0.9,1.8-2.3,1.7-3.8
			c-0.1-1.5-0.9-2.8-2.2-3.5c-3.8-2.1-7.6-4-11.4-5.6c2.3-0.8,4.4-1.7,6.3-2.7c1.2-0.6,2-1.7,2.3-3c0.3-1.3-0.1-2.6-0.9-3.7
			c-0.8-1-1.7-2-2.5-2.8c5.1-2.6,9.7-5.7,13.9-9.5c1.8-1.6,2-4.2,0.5-6.1c-1.1-1.3-2.4-2.7-3.8-4c5.8-4.1,11.3-8.7,16.4-13.7
			c0.8-0.8,1.3-2,1.3-3.1c0-1.2-0.5-2.3-1.3-3.1c-0.7-0.7-1.4-1.3-2.1-1.9c3.7-3.7,7-8.1,9.9-13.1c0.6-1.1,0.8-2.4,0.3-3.7
			c-0.4-1.2-1.4-2.2-2.6-2.6c-1.7-0.7-3.4-1.2-5.1-1.6c1.4-3.7,2.6-7.9,3.6-13c0.2-1.3-0.1-2.6-0.9-3.6c-0.8-1-2.1-1.6-3.4-1.6
			c-0.4,0-0.7,0-1.1,0.1c-4.7,1.2-9.5,3.1-13.3,4.8c-0.7-2.4-1.5-4.8-2.8-7c-0.8-1.4-2.2-2.2-3.8-2.2c-0.9,0-1.8,0.3-2.6,0.8
			c-4.4,3.2-8.5,6.7-12.1,10.4c-0.8-0.8-1.7-1.5-2.6-2.2c-0.7-0.5-1.6-0.8-2.5-0.8c-1.3,0-2.6,0.6-3.4,1.6
			c-4.1,5.1-9.3,11.1-15.6,17c1.6-3.5,3.3-7,5-10.3c0.6-1.2,0.6-2.6,0.1-3.8c-0.6-1.2-1.7-2.1-3-2.4c-0.1,0-0.3-0.1-0.4-0.1
			c3.2-5.8,6.1-12.5,8.1-19.4c0.4-1.3,0.1-2.7-0.7-3.8c-0.8-1.1-2.1-1.7-3.5-1.7h-0.1l-0.1,0c-2.7,0.1-5.6,0.5-8.5,1.2
			c0.3-5.1-0.2-10.7-1.3-16.9c-0.4-2.1-2.2-3.6-4.3-3.6c-0.5,0-1,0.1-1.5,0.3c-1.3,0.5-2.6,1.1-4,1.7c-0.2-4.6-0.8-9.3-1.8-13.6
			c-0.5-2-2.2-3.3-4.2-3.3c-0.5,0-1,0.1-1.4,0.2c-1.1,0.4-2.3,0.9-3.7,1.6c-2.3-5.4-5.2-10.5-8.2-15.3C109.9,2.7,108.5,1.9,107,1.9
			L107,1.9z"/>
	</g>
	<g>
		<path class="st0" d="M208.5,94.9c0.1-0.2,0-0.4-0.2-0.5c-3.1-1.1-5.9-1.9-8.9-2.4c-0.2,0-0.4-0.3-0.3-0.5
			c2.4-4.8,3.9-10.3,5.1-16.3c0-0.3-0.2-0.5-0.4-0.4c-5.4,1.4-11.5,3.9-16.6,6.4c-0.2,0.1-0.4,0-0.5-0.2c-0.8-3.3-1.6-7.1-3.5-10.3
			c-0.1-0.2-0.4-0.2-0.5-0.1c-5.4,3.9-10.3,8.2-14.5,13c-0.2,0.2-0.4,0.1-0.6-0.1c-1.1-1.8-2.5-3.4-4.4-4.7
			c-0.1-0.1-0.4-0.1-0.5,0.1c-7,8.6-15.7,18.4-27,26.5c-0.2,0.2-0.6-0.1-0.5-0.3c2.6-8.4,6.4-16.4,10.2-23.7c0.1-0.2,0-0.4-0.2-0.5
			c-1.6-0.4-3.7-0.6-5.7-0.7c-0.3,0-0.4-0.3-0.3-0.5c4.8-7.1,8.4-15.6,10.7-23.4c0.1-0.2-0.1-0.4-0.3-0.4c-4,0.2-8.8,1.1-12.8,2.5
			c-0.2,0.1-0.5-0.1-0.4-0.4c1.2-6.7,0.6-14.2-0.6-21.1c0-0.2-0.3-0.3-0.5-0.3c-2.8,1.1-6,2.7-9,4.4c-0.2,0.1-0.5,0-0.5-0.3
			c0.4-6.3-0.3-13.2-1.6-18.8c0-0.2-0.2-0.3-0.4-0.2c-2,0.7-4.4,2-6.7,3.3c-0.2,0.1-0.4,0-0.5-0.2c-2.2-6.3-5.6-12.5-9.4-18.6
			c-0.1-0.2-0.5-0.2-0.6,0c-3.7,6.1-7.2,12.3-9.4,18.6c-0.1,0.2-0.3,0.3-0.5,0.2c-2.3-1.4-4.7-2.6-6.7-3.3c-0.2-0.1-0.4,0-0.4,0.2
			c-1.3,5.6-2,12.5-1.6,18.8c0,0.3-0.3,0.5-0.5,0.3c-2.9-1.8-6.1-3.4-9-4.4c-0.2-0.1-0.4,0.1-0.5,0.3c-1.3,6.9-1.8,14.4-0.6,21.1
			c0,0.3-0.2,0.5-0.4,0.4c-4-1.4-8.8-2.3-12.8-2.5c-0.2,0-0.4,0.2-0.3,0.4c2.3,7.7,5.9,16.3,10.7,23.4c0.1,0.2,0,0.5-0.3,0.5
			c-2,0.1-4.1,0.3-5.7,0.7c-0.2,0-0.3,0.3-0.2,0.5c3.8,7.4,7.6,15.4,10.2,23.8c0.1,0.3-0.2,0.5-0.5,0.3c-10-7-19.6-17.3-27-26.5
			c-0.1-0.1-0.3-0.2-0.5-0.1c-1.9,1.3-3.3,2.9-4.4,4.7c-0.1,0.2-0.4,0.2-0.6,0.1c-4.2-4.7-9.1-9-14.5-13c-0.2-0.1-0.4-0.1-0.5,0.1
			c-1.8,3.2-2.7,7-3.5,10.3c0,0.2-0.3,0.3-0.5,0.2c-5.1-2.4-11.3-5-16.6-6.4c-0.3-0.1-0.5,0.2-0.4,0.4c1.2,6,2.7,11.5,5.1,16.3
			c0.1,0.2,0,0.5-0.3,0.5c-2.9,0.4-5.8,1.2-8.9,2.4c-0.2,0.1-0.3,0.3-0.2,0.5c3.6,6.2,7.7,11.3,12.5,15.3c0.2,0.2,0.2,0.4,0,0.6
			c-2,1.2-3.7,2.5-5.3,4.1c-0.1,0.1-0.1,0.4,0,0.5c6.1,5.9,12.6,11.3,19.8,15.9c0.2,0.1,0.2,0.4,0,0.6c-2.6,2-5,4.2-7,6.5
			c-0.1,0.1-0.1,0.4,0,0.5c5.2,4.6,11.1,8.3,18,11.1c0.3,0.1,0.3,0.4,0.1,0.6c-2.5,1.8-4.4,3.9-6.3,6.1c-0.1,0.2-0.1,0.4,0.1,0.5
			c4.9,2.5,10.9,4.2,17.1,5.3c0.3,0.1,0.3,0.4,0,0.5c-7.9,2.5-15.2,5.6-22.2,9.5c-0.2,0.1-0.2,0.4,0,0.6c5.1,3.8,10.3,7.1,16.4,9.5
			c0.3,0.1,0.3,0.4,0.1,0.6c-8.3,6.8-15.1,14.5-21,23c-0.2,0.3,0,0.6,0.3,0.6c8.4-1.1,16.3-2.4,23.1-4.2c0.3-0.1,0.5,0.2,0.4,0.5
			c-1.5,2.9-2.8,6-4,9.2c-0.1,0.2,0.1,0.5,0.4,0.5c7.6-0.8,14.5-1.8,20.1-3c0.3-0.1,0.5,0.3,0.4,0.5c-2.3,3.6-4,7.4-5.3,11.6
			c-0.1,0.3,0.1,0.5,0.4,0.5c13.3-2.5,25.5-6.4,36.3-11.5c0.3-0.1,0.6,0.1,0.6,0.4c0.6,9.6,4.3,16.2,9.2,21.6c0.2,0.2,0.5,0.2,0.7,0
			l7-6.4c0.2-0.2,0.2-0.5,0-0.7c-1.4-1.6-7.7-8.8-6.6-14.3c0.1-0.7,0.9-1,1.5-0.7c8,3.6,24.7,9.2,37.8,11.7c0.3,0,0.5-0.2,0.4-0.5
			c-1.3-4.2-3-8.1-5.3-11.7c-0.2-0.3,0.1-0.6,0.4-0.5c5.5,1.3,12.4,2.2,20.1,3c0.3,0,0.5-0.2,0.4-0.5c-1.2-3.2-2.5-6.3-4-9.2
			c-0.1-0.3,0.1-0.6,0.4-0.5c6.8,1.9,14.6,3.2,23.1,4.2c0.3,0,0.5-0.3,0.3-0.6c-5.9-8.5-12.7-16.2-21-23c-0.2-0.2-0.2-0.5,0.1-0.6
			c6.1-2.4,11.3-5.7,16.4-9.5c0.2-0.2,0.2-0.5,0-0.6c-7-3.9-14.3-7.1-22.2-9.5c-0.3-0.1-0.3-0.5,0-0.5c6.2-1.1,12.2-2.8,17.1-5.3
			c0.2-0.1,0.3-0.4,0.1-0.5c-1.8-2.2-3.8-4.2-6.3-6.1c-0.2-0.2-0.2-0.5,0.1-0.6c6.9-2.8,12.8-6.5,18-11.1c0.1-0.1,0.2-0.4,0-0.5
			c-2-2.4-4.3-4.5-7-6.5c-0.2-0.2-0.2-0.4,0-0.6c7.2-4.7,13.8-10,19.8-15.9c0.1-0.1,0.1-0.4,0-0.5c-1.6-1.5-3.3-2.9-5.3-4.1
			c-0.2-0.1-0.2-0.4,0-0.6C200.7,106.2,204.9,101.1,208.5,94.9z M143.6,120c-1.5-0.5-3-1-4.5-1.4l1.1-3.4c4.4,1.3,8.7,2.8,13,4.4
			l-1.1,3.4c-1.5-0.5-3-1.1-4.4-1.6l-0.3-0.1l-5.7,16.9c-1.2-0.4-2.4-0.8-3.5-1.2l5.7-16.9L143.6,120z M137,143.5h10.7v3.5h-7.1v4.1
			h4.8v3.5h-4.8v4.1h7.1v3.5H137V143.5z M135,181.1h3.7v0.8c0,0.6,0.5,1.1,1.1,1.1l3,0c0.6,0,1.1-0.5,1.1-1.1v-1.2
			c0-0.4-0.3-0.8-0.6-1c-0.1,0-6.6-2.9-6.6-2.9c-1.2-0.6-1.8-1.9-1.8-3.3v-1.9c0-2,1.7-3.7,3.7-3.7h5.2c2.1,0,3.7,1.6,3.7,3.7v1.7
			H144v-0.8c0-0.6-0.5-1.1-1.1-1.1l-3,0c-0.6,0-1.1,0.5-1.1,1.1v0.4c0,0.4,0.3,0.8,0.6,1c0.1,0,6.6,2.9,6.6,2.9
			c1.2,0.6,1.8,1.9,1.8,3.3v2.7c0,2-1.7,3.7-3.7,3.7h-5.2c-2.1,0-3.7-1.6-3.7-3.7V181.1z M128.9,125.3l2.1-12.1
			c1.2,0.2,2.5,0.5,3.7,0.7l-3.6,21.1c-1-0.2-1.9-0.4-2.9-0.6c-1.4-4-2.8-8.1-4.1-12.2l-0.4-1l-2,12.1c-1.2-0.2-2.5-0.4-3.7-0.5
			l3.6-21.1c1,0.1,2,0.3,2.9,0.4c1.4,4,2.8,8.1,4.1,12.2L128.9,125.3z M127.9,175.4v3.5h-5.7v7.6h-3.7v-18.6h11.7v3.5h-8v4.1H127.9z
			 M121.9,162.1v-18.6h3.6v15.1h6.7v3.5H121.9z M86.1,74.5c5,7.6,11.6,13.9,19.6,18.7c0,0,0,0,0.1,0c0,0,0,0,0,0
			c-0.1-5.8,0-11.6,0.2-17.4c0-0.2-0.1-0.4-0.2-0.5c-4.4-3.4-8-7.6-10.7-12.6l0.1-0.1c3,4.6,6.7,8.5,10.8,11.4c0,0,0.1,0,0.1-0.1
			c0.1-2.1,0.1-3.9,0.2-5.5c0.3-4.8,0.5-9.8,0.7-14.9c0-0.2-0.1-0.4-0.2-0.5c-3.7-4.4-6.5-8.6-8.6-12.6l0.1-0.1
			c2.6,4,5.5,7.7,8.6,11.1c0,0,0,0,0,0c0,0,0.1,0,0.1-0.1c0.2-7.8,0.3-15.6,0.3-23.3l0.1,0c0.6,7.2,0.9,22.5,0.7,35.7
			c0,0,0,0.1,0,0.1c0,0,0.1,0,0.1,0c3.4-1.7,6.9-4.1,10.6-7.3l0.1,0.1c-3.4,3.6-6.9,6.4-10.7,8.6c-0.1,0.1-0.2,0.2-0.2,0.3
			c0,1.2-0.1,2.2-0.1,3.2c-0.3,7.4-0.3,16.2,0,26.9c0,0.1,0.1,0.1,0.1,0.1c8.7-6.2,15.2-12.9,19.4-19.9l0.1,0.1
			c-3.4,7-10.5,15-19.4,21.8c-0.1,0.1-0.1,0.1-0.1,0.2c0.1,1.7,0.1,3.4,0.2,5c0,0,0,0.1,0,0.1c0,0-0.1,0.1-0.1,0.1h0h0l-1.9,0
			c-0.1,0-0.2-0.1-0.2-0.2c-0.1-2.4-0.2-4.8-0.2-7.5c0-0.1,0-0.1-0.1-0.2C97.7,90.1,90.5,82.6,86.1,74.5L86.1,74.5z M92.3,175.4v3.5
			h-5.7v4.1h8v3.5H82.9v-18.6h11.7v3.5h-8v4.1H92.3z M90.3,158.6l-0.8,3.5h-3.7l4.6-18.6h5l4.6,18.6h-3.7l-0.8-3.5H90.3z M104,167.9
			h5l5,18.6h-3.8l-0.9-3.5h-5.7l-0.9,3.5H99L104,167.9z M100.8,128.4v-13.3c0-2.3,1.8-4.1,4.1-4.2c0.9,0,1.7,0,2.6,0
			c0.9,0,1.7,0,2.6,0c2.2,0,4.1,1.9,4.1,4.2v13.3c0,2.2-1.8,4-4.1,4c-2.9,0-4.9,0-5.3,0C102.5,132.3,100.8,130.6,100.8,128.4z
			 M112.7,156.7h-4.4v5.4h-3.6v-18.6h8c2,0,3.7,1.6,3.7,3.7v5.8C116.3,155,114.7,156.7,112.7,156.7z M90.1,112.1c0.2,0,0.4,0,0.6,0
			c2,0,3.7,1.5,4.1,3.5l1.1,6.8c0.3,1.8-0.7,3.6-2.4,4.3l-0.3,0.1l0.2,0.3c1.3,1.9,2.7,3.8,4,5.7c-1.2,0.2-2.4,0.3-3.6,0.5
			c-1.3-1.9-2.7-3.8-4-5.7l-0.1-0.1l-0.2,0c-0.5,0.1-1,0.2-1.6,0.3l-0.3,0l1,6.3c-1.2,0.2-2.5,0.4-3.7,0.7l-3.4-21.1
			C84.3,113.1,87.2,112.6,90.1,112.1z M78.1,183v3.5H67.2v-18.6h3.7V183H78.1z M77.4,162.1v-8.6l-3.3,7.4l-3.3-7.4v8.6h-3.6v-18.6
			h2.9l4,9.3l4-9.3h2.9v18.6H77.4z M41.3,108.9c-0.1-0.1-0.1-0.1-0.2-0.1c-0.2,0-0.4,0-0.6,0c-5.5,0-10.4-1.4-15.1-4.3l0.1-0.1
			c4.4,2.1,8.6,3.1,12.7,3.1c0.6,0,1.2,0,1.8-0.1c-1-1-2-1.9-2.8-2.8c-6-5.8-10.9-11.1-15.1-16.1l0.1-0.1c5,5.2,9.3,9.5,13.2,13.1
			l0.1,0c0.5-3.3,0.3-6.4-0.8-9.5l0.1,0c1.6,3.2,2.2,6.7,1.9,10.4c0,0.1,0,0.3,0.2,0.4c3.5,3.1,6.9,6.3,10,9.3c0,0,0,0,0,0
			c0-4.3-1.2-8.2-3.6-11.9l0.1-0.1c3.2,3.8,4.9,8.2,5,13.2c0,0.1,0.1,0.3,0.2,0.4c0.5,0.5,1,1,1.4,1.5c0,0,0,0.1,0,0.1
			c0,0,0,0.1-0.1,0.1l-1.3,0.6c0,0,0,0-0.1,0c0,0-0.1,0-0.1-0.1C45.5,113.3,43.3,110.9,41.3,108.9z M58.8,144.6l-8.2-15.8l-0.3,0.1
			c-1.4,0.7-2.8,1.5-4.1,2.2l-1.6-3.2c4-2.2,8.1-4.3,12.2-6.3l1.6,3.2c-1.4,0.7-2.8,1.4-4.2,2.1L54,127l8.2,15.8
			C61,143.4,59.9,144,58.8,144.6z M65.3,118.3c1.6-0.6,3.3-1.1,5-1.7c0.4-0.1,0.8-0.2,1.2-0.2c1.8,0,3.4,1.2,3.9,2.8l4.3,12.6
			c0.3,1,0.3,2.1-0.2,3c-0.5,1-1.3,1.7-2.4,2c-1.7,0.5-3.3,1.1-5,1.7c-0.4,0.2-0.9,0.2-1.4,0.2c-1.7,0-3.2-1.1-3.7-2.7l-4.3-12.6
			C62.1,121.4,63.2,119.1,65.3,118.3z M133.9,201.3c-2.2,0-4.3-0.2-6.2-0.5c0,0-0.1,0,0,0.1c1.9,1.8,5.7,3.7,7.8,4.6l1,0.4l-1.1-0.2
			c-2.5-0.4-7.7-2.9-10.5-5.4c0,0-0.1,0-0.1-0.1c-4.6-1.1-8.6-2.5-12.6-2.5c-5.2,0-8.9,1.2-10.8,6.3c-0.1-1.2,0-2.2,0.3-3.1
			c0,0,0-0.1,0-0.1c-1-0.7-4.8-3-8.6-3c-5.7,0-13.1,6.4-18.7,7.1c2.7-0.9,5.8-3,8.9-4.9c0,0,0-0.1,0-0.1c-5.2-1-11.8,0.1-18.7,1.9
			c6.7-2.6,13.4-4,20.5-2.9c0,0,0.1,0,0.1,0c2.7-1.5,5.3-2.7,7.7-2.7c4.5,0,8.4,2.3,9.5,3.1c0,0,0.1,0,0.1,0
			c1.8-2.6,5.5-3.7,9.4-3.7c6.2,0,15.7,4.6,23.2,4.6c8.3,0,10.7-0.8,13.1-1.3C145.9,199.8,142.2,201.3,133.9,201.3z M168.2,131.5
			l-6.1,11.8c-0.7,1.3-2,2.1-3.5,2.1c-0.7,0-1.3-0.2-1.9-0.5c-1.5-0.8-3.1-1.6-4.7-2.4c-1-0.5-1.7-1.3-2-2.3c-0.3-1-0.2-2.1,0.3-3
			l6.1-11.8c0.7-1.4,2.2-2.3,3.7-2.3c0.6,0,1.2,0.1,1.8,0.4c1.6,0.8,3.1,1.6,4.6,2.4C168.4,127,169.2,129.4,168.2,131.5z
			 M171.2,109.8c0.5,0,1.1,0.1,1.6,0.1c3.8,0,7.5-0.8,11.6-2.7l0.1,0.1c-4.2,2.6-9,3.9-14.5,3.9c-0.2,0-0.3,0.1-0.5,0.2
			c-1.6,1.7-2.9,3.1-4.2,4.5c0,0-0.1,0.1-0.1,0.1c0,0-0.1,0-0.1,0l-1.3-0.7c0,0-0.1-0.1-0.1-0.1c0,0,0-0.1,0-0.1
			c3.3-3.5,7-7,10.9-10.4c0.1-0.1,0.2-0.3,0.2-0.4c-0.3-4.2,0.1-7.8,1.3-11.2l0.1,0c-0.7,3.5-0.8,7-0.3,10.3c0,0,0,0,0,0
			c0,0,0,0,0,0c5.1-4.9,9.9-9.5,14.6-14.2l0.1,0.1c-3.9,4.6-8.2,9.3-12.8,13.9C175.6,105.2,173.4,107.4,171.2,109.8
			C171.1,109.7,171.2,109.8,171.2,109.8C171.2,109.8,171.2,109.8,171.2,109.8z"/>
	</g>
	<g>
		<path class="st0" d="M71.8,134.8L71.8,134.8c0.2,0,0.4,0,0.5-0.1c0.8-0.3,1.5-0.5,2.3-0.8c0.4-0.1,0.7-0.4,0.9-0.8
			c0.2-0.4,0.2-0.8,0.1-1.2l-3.5-10.4c-0.2-0.7-0.8-1.1-1.5-1.1c-0.2,0-0.3,0-0.5,0.1c-0.8,0.3-1.5,0.5-2.3,0.8
			c-0.8,0.3-1.3,1.2-1,2.1l3.5,10.4C70.5,134.4,71.1,134.8,71.8,134.8z"/>
	</g>
	<path class="st2" d="M105.7,95.2c0.1,0,0.1,0.1,0.1,0.2c0,2.7,0.1,5.1,0.2,7.5c0,0.1,0.1,0.2,0.2,0.2l1.9,0h0h0c0,0,0.1,0,0.1-0.1
		c0,0,0-0.1,0-0.1c-0.1-1.7-0.1-3.4-0.2-5c0-0.1,0-0.2,0.1-0.2c9-6.8,16.1-14.7,19.4-21.8l-0.1-0.1c-4.2,7-10.7,13.6-19.4,19.9
		c-0.1,0-0.1,0-0.1-0.1c-0.3-10.7-0.3-19.4,0-26.9c0-1,0.1-2,0.1-3.2c0-0.1,0.1-0.2,0.2-0.3c3.8-2.2,7.3-5,10.7-8.6l-0.1-0.1
		c-3.7,3.3-7.2,5.7-10.6,7.3c0,0-0.1,0-0.1,0c0,0,0,0,0-0.1c0.2-13.1-0.1-28.5-0.7-35.7l-0.1,0c0.1,7.6,0,15.5-0.3,23.3
		c0,0,0,0.1-0.1,0.1c0,0,0,0,0,0c-3.2-3.3-6.1-7.1-8.6-11.1l-0.1,0.1c2.1,4.1,4.9,8.2,8.6,12.6c0.1,0.1,0.2,0.3,0.2,0.5
		c-0.2,5.1-0.4,10.1-0.7,14.9c-0.1,1.7-0.2,3.4-0.2,5.5c0,0.1-0.1,0.1-0.1,0.1c-4-2.9-7.8-6.8-10.8-11.4L95,62.7
		c2.7,5,6.3,9.2,10.7,12.6c0.2,0.1,0.2,0.3,0.2,0.5c-0.2,5.8-0.2,11.6-0.2,17.4c0,0,0,0,0,0c0,0,0,0-0.1,0
		c-8-4.9-14.5-11.2-19.6-18.7L86,74.6C90.5,82.6,97.7,90.1,105.7,95.2z"/>
	<path class="st2" d="M48.3,116.2C48.3,116.2,48.3,116.2,48.3,116.2l1.4-0.6c0,0,0.1-0.1,0.1-0.1c0,0,0-0.1,0-0.1
		c-0.5-0.5-0.9-1-1.4-1.5c-0.1-0.1-0.2-0.2-0.2-0.4c-0.1-5-1.8-9.5-5-13.2l-0.1,0.1c2.4,3.7,3.6,7.5,3.6,11.9c0,0,0,0,0,0
		c-3.1-3.1-6.4-6.2-10-9.3c-0.1-0.1-0.2-0.2-0.2-0.4c0.3-3.7-0.3-7.2-1.9-10.4l-0.1,0c1.1,3.1,1.3,6.2,0.8,9.5l-0.1,0
		c-3.9-3.6-8.2-7.9-13.2-13.1L22,88.7c4.2,5,9.1,10.2,15.1,16.1c0.9,0.8,1.8,1.7,2.8,2.8c-0.6,0-1.2,0.1-1.8,0.1
		c-4.1,0-8.3-1-12.7-3.1l-0.1,0.1c4.7,2.9,9.6,4.3,15.1,4.3c0.2,0,0.4,0,0.6,0c0.1,0,0.2,0,0.2,0.1c2,2,4.2,4.4,6.8,7.2
		C48.2,116.2,48.2,116.2,48.3,116.2z"/>
	<path class="st2" d="M177.9,103.1c4.5-4.6,8.8-9.3,12.8-13.9l-0.1-0.1c-4.7,4.7-9.4,9.3-14.6,14.2c0,0,0,0,0,0c0,0,0,0,0,0
		c-0.5-3.3-0.4-6.8,0.3-10.3l-0.1,0c-1.2,3.4-1.7,7-1.3,11.2c0,0.2-0.1,0.3-0.2,0.4c-3.9,3.5-7.5,7-10.9,10.4c0,0,0,0.1,0,0.1
		c0,0,0,0.1,0.1,0.1l1.3,0.7c0,0,0.1,0,0.1,0c0.1,0,0.1,0,0.1-0.1c1.2-1.4,2.6-2.8,4.2-4.5c0.1-0.1,0.3-0.2,0.5-0.2
		c5.5-0.1,10.2-1.4,14.5-3.9l-0.1-0.1c-4.1,1.8-7.8,2.7-11.6,2.7c-0.5,0-1.1,0-1.6-0.1c0,0,0,0,0,0c0,0,0,0,0,0
		C173.4,107.4,175.6,105.2,177.9,103.1z"/>
	<path class="st2" d="M111.8,195.6c-3.9,0-7.6,1.1-9.4,3.7c0,0-0.1,0-0.1,0c-1.2-0.8-5-3.1-9.5-3.1c-2.4,0-5.1,1.2-7.7,2.7
		c0,0-0.1,0-0.1,0c-7.1-1-13.9,0.3-20.5,2.9c6.9-1.8,13.5-2.9,18.7-1.9c0,0,0,0,0,0.1c-3.1,1.9-6.1,3.9-8.9,4.9
		c5.6-0.7,13-7.1,18.7-7.1c3.8,0,7.6,2.4,8.6,3c0,0,0,0.1,0,0.1c-0.3,0.9-0.4,1.9-0.3,3.1c1.9-5.1,5.6-6.3,10.8-6.3
		c4,0,7.9,1.4,12.6,2.5c0,0,0.1,0,0.1,0.1c2.8,2.5,8,4.9,10.5,5.4l1.1,0.2l-1-0.4c-2.1-0.8-5.9-2.7-7.8-4.6c0,0,0-0.1,0-0.1
		c1.9,0.3,4,0.5,6.2,0.5c8.3,0,12-1.5,14.3-2.4c-2.5,0.5-4.8,1.3-13.1,1.3C127.5,200.1,118,195.6,111.8,195.6z"/>
	<path class="st1" d="M110.1,132.3c2.3,0,4.1-1.7,4.1-4v-13.3c0-2.3-1.8-4.1-4.1-4.2c-0.9,0-1.7,0-2.6,0c-0.9,0-1.7,0-2.6,0
		c-2.2,0-4.1,1.9-4.1,4.2v13.3c0,2.2,1.8,4,4,4C105.2,132.3,107.2,132.3,110.1,132.3z M104.6,116.1c0-0.9,0.7-1.6,1.6-1.6
		c0.8,0,1.6,0,2.4,0c0.9,0,1.6,0.7,1.6,1.6v11c0,0.9-0.7,1.6-1.6,1.6c-0.8,0-1.6,0-2.4,0c-0.9,0-1.6-0.7-1.6-1.6V116.1z"/>
	<polygon class="st1" points="81.1,143.5 78.2,143.5 74.1,152.8 70.1,143.5 67.2,143.5 67.2,162.1 70.8,162.1 70.8,153.5 74.1,161 
		77.4,153.5 77.4,162.1 81.1,162.1 	"/>
	<path class="st1" d="M88.6,134.1l-1-6.3l0.3,0c0.5-0.1,1-0.2,1.6-0.3l0.2,0l0.1,0.1c1.3,1.9,2.7,3.8,4,5.7c1.2-0.2,2.4-0.4,3.6-0.5
		c-1.3-1.9-2.7-3.8-4-5.7l-0.2-0.3l0.3-0.1c1.7-0.7,2.7-2.5,2.4-4.3l-1.1-6.8c-0.3-2-2.1-3.5-4.1-3.5c-0.2,0-0.4,0-0.6,0
		c-2.9,0.4-5.8,0.9-8.6,1.5l3.4,21.1C86.1,134.5,87.3,134.3,88.6,134.1z M86,116.4c1.1-0.2,2.2-0.4,3.4-0.6c0.9-0.1,1.7,0.5,1.9,1.3
		l0.7,4.6c0.1,0.4,0,0.9-0.3,1.2c-0.3,0.3-0.6,0.6-1.1,0.6c-1.1,0.2-2.2,0.4-3.4,0.6l-0.3,0l-1.3-7.7L86,116.4z"/>
	<path class="st1" d="M116.3,153v-5.8c0-2-1.6-3.7-3.7-3.7h-8v18.6h3.6v-5.4h4.4C114.7,156.7,116.3,155,116.3,153z M112.7,152
		c0,0.6-0.5,1.1-1.1,1.1h-3.3V147h3.3c0.6,0,1.1,0.5,1.1,1.1V152z"/>
	<polygon class="st1" points="67.2,167.9 67.2,186.5 78.1,186.5 78.1,183 70.9,183 70.9,167.9 	"/>
	<path class="st1" d="M166.5,125.9c-1.5-0.8-3.1-1.6-4.6-2.4c-0.6-0.3-1.2-0.4-1.8-0.4c-1.5,0-3,0.9-3.7,2.3l-6.1,11.8
		c-0.5,1-0.6,2-0.3,3c0.3,1,1.1,1.9,2,2.3c1.5,0.8,3.1,1.6,4.7,2.4c0.6,0.3,1.3,0.5,1.9,0.5c1.5,0,2.8-0.8,3.5-2.1l6.1-11.8
		C169.2,129.4,168.4,127,166.5,125.9z M164.3,130.6l-5.1,9.8c-0.3,0.5-0.8,0.9-1.4,0.9c-0.3,0-0.5-0.1-0.7-0.2
		c-0.7-0.4-1.4-0.7-2.1-1.1c-0.4-0.2-0.7-0.5-0.8-0.9c-0.1-0.4-0.1-0.8,0.1-1.2l5.1-9.8c0.3-0.5,0.8-0.9,1.4-0.9
		c0.3,0,0.5,0.1,0.7,0.2c0.7,0.4,1.4,0.7,2.2,1.1C164.4,128.8,164.7,129.8,164.3,130.6z"/>
	<path class="st1" d="M70.8,138.8c0.5,0,0.9-0.1,1.4-0.2c1.6-0.6,3.3-1.1,5-1.7c1-0.3,1.9-1.1,2.4-2c0.5-0.9,0.5-2,0.2-3l-4.3-12.6
		c-0.6-1.7-2.2-2.8-3.9-2.8c-0.4,0-0.8,0.1-1.2,0.2c-1.7,0.5-3.3,1.1-5,1.7c-2.1,0.7-3.2,3.1-2.5,5.2l4.3,12.6
		C67.6,137.7,69.1,138.8,70.8,138.8z M67.8,121.2c0.8-0.3,1.5-0.5,2.3-0.8c0.2-0.1,0.3-0.1,0.5-0.1c0.7,0,1.3,0.4,1.5,1.1l3.5,10.4
		c0.1,0.4,0.1,0.8-0.1,1.2c-0.2,0.4-0.5,0.7-0.9,0.8c-0.8,0.3-1.5,0.5-2.3,0.8c-0.2,0.1-0.3,0.1-0.5,0.1h0c-0.7,0-1.3-0.4-1.5-1.1
		l-3.5-10.4C66.5,122.4,66.9,121.5,67.8,121.2z"/>
	<path class="st1" d="M54.2,126.9c1.4-0.7,2.8-1.4,4.2-2.1l-1.6-3.2c-4.1,2-8.2,4.1-12.2,6.3l1.6,3.2c1.4-0.8,2.7-1.5,4.1-2.2
		l0.3-0.1l8.2,15.8c1.1-0.6,2.2-1.2,3.3-1.7L54,127L54.2,126.9z"/>
	<path class="st1" d="M121.5,111.6l-3.6,21.1c1.2,0.2,2.5,0.4,3.7,0.5l2-12.1l0.4,1c1.4,4,2.8,8.1,4.1,12.2c1,0.2,1.9,0.4,2.9,0.6
		l3.6-21.1c-1.2-0.2-2.4-0.5-3.7-0.7l-2.1,12.1l-0.4-1.1c-1.4-4-2.8-8.1-4.1-12.2C123.4,111.9,122.4,111.8,121.5,111.6z"/>
	<path class="st1" d="M138.8,186.5h5.2c2.1,0,3.7-1.6,3.7-3.7v-2.7c0-1.4-0.5-2.6-1.8-3.3c0,0-6.5-2.9-6.6-2.9
		c-0.3-0.2-0.6-0.6-0.6-1v-0.4c0-0.6,0.5-1.1,1.1-1.1l3,0c0.6,0,1.1,0.5,1.1,1.1v0.8h3.7v-1.7c0-2-1.7-3.7-3.7-3.7h-5.2
		c-2.1,0-3.7,1.6-3.7,3.7v1.9c0,1.4,0.5,2.6,1.8,3.3c0,0,6.5,2.9,6.6,2.9c0.3,0.2,0.6,0.6,0.6,1v1.2c0,0.6-0.5,1.1-1.1,1.1l-3,0
		c-0.6,0-1.1-0.5-1.1-1.1v-0.8H135v1.7C135,184.8,136.7,186.5,138.8,186.5z"/>
	<polygon class="st1" points="147.7,158.6 140.6,158.6 140.6,154.5 145.4,154.5 145.4,151 140.6,151 140.6,147 147.7,147 
		147.7,143.5 137,143.5 137,162.1 147.7,162.1 	"/>
	<polygon class="st1" points="130.2,171.4 130.2,167.9 118.5,167.9 118.5,186.5 122.2,186.5 122.2,178.9 127.9,178.9 127.9,175.4 
		122.2,175.4 122.2,171.4 	"/>
	<path class="st1" d="M141.7,138.2l5.7-16.9l0.3,0.1c1.5,0.5,3,1,4.4,1.6l1.1-3.4c-4.3-1.6-8.6-3-13-4.4l-1.1,3.4
		c1.5,0.5,3,0.9,4.5,1.4l0.3,0.1l-5.7,16.9C139.4,137.4,140.6,137.8,141.7,138.2z"/>
	<path class="st1" d="M103.7,183h5.7l0.9,3.5h3.8l-5-18.6h-5l-5,18.6h3.8L103.7,183z M106.6,171.7l2,7.8h-4L106.6,171.7z"/>
	<path class="st1" d="M96.2,162.1h3.7l-4.6-18.6h-5l-4.6,18.6h3.7l0.8-3.5h5.1L96.2,162.1z M91.1,155.1l1.7-7.8l1.7,7.8H91.1z"/>
	<polygon class="st1" points="132.2,158.6 125.5,158.6 125.5,143.5 121.9,143.5 121.9,162.1 132.2,162.1 	"/>
	<polygon class="st1" points="94.6,171.4 94.6,167.9 82.9,167.9 82.9,186.5 94.6,186.5 94.6,183 86.6,183 86.6,178.9 92.3,178.9 
		92.3,175.4 86.6,175.4 86.6,171.4 	"/>
</g>
</svg>
